<mxfile host="app.diagrams.net" modified="2022-04-03T03:55:09.181Z" agent="5.0 (Macintosh; Intel Mac OS X 10_15_7) AppleWebKit/605.1.15 (KHTML, like Gecko) Version/15.3 Safari/605.1.15" etag="IlLYAsyqIXMDjEhXvwPJ" version="17.4.0" type="github">
  <diagram id="3d7CQkchzFJ17h5a7cnf" name="Page-1">
    <mxGraphModel dx="946" dy="620" grid="1" gridSize="10" guides="1" tooltips="1" connect="1" arrows="1" fold="1" page="1" pageScale="1" pageWidth="827" pageHeight="1169" math="1" shadow="0">
      <root>
        <mxCell id="0" />
        <mxCell id="1" parent="0" />
        <mxCell id="1wutTRb1-3ki2wQ0vtYq-3" value="$$\text{Receiver}$$" style="shape=umlLifeline;perimeter=lifelinePerimeter;whiteSpace=wrap;html=1;container=1;collapsible=0;recursiveResize=0;outlineConnect=0;" vertex="1" parent="1">
          <mxGeometry x="240" y="80" width="100" height="360" as="geometry" />
        </mxCell>
        <mxCell id="1wutTRb1-3ki2wQ0vtYq-4" value="" style="html=1;points=[];perimeter=orthogonalPerimeter;fillColor=#808080;" vertex="1" parent="1wutTRb1-3ki2wQ0vtYq-3">
          <mxGeometry x="45" y="60" width="10" height="200" as="geometry" />
        </mxCell>
        <mxCell id="1wutTRb1-3ki2wQ0vtYq-20" style="rounded=0;orthogonalLoop=1;jettySize=auto;html=1;exitX=0.1;exitY=0.205;exitDx=0;exitDy=0;exitPerimeter=0;entryX=1;entryY=0.619;entryDx=0;entryDy=0;entryPerimeter=0;" edge="1" parent="1wutTRb1-3ki2wQ0vtYq-3">
          <mxGeometry relative="1" as="geometry">
            <mxPoint x="46" y="73.05999999999995" as="sourcePoint" />
            <mxPoint x="-145" y="160" as="targetPoint" />
          </mxGeometry>
        </mxCell>
        <mxCell id="1wutTRb1-3ki2wQ0vtYq-31" style="rounded=0;orthogonalLoop=1;jettySize=auto;html=1;exitX=0.1;exitY=0.205;exitDx=0;exitDy=0;exitPerimeter=0;entryX=1;entryY=0.619;entryDx=0;entryDy=0;entryPerimeter=0;" edge="1" parent="1wutTRb1-3ki2wQ0vtYq-3">
          <mxGeometry relative="1" as="geometry">
            <mxPoint x="45" y="249.99999999999994" as="sourcePoint" />
            <mxPoint x="-146" y="336.94" as="targetPoint" />
          </mxGeometry>
        </mxCell>
        <mxCell id="1wutTRb1-3ki2wQ0vtYq-13" value="$$r_1$$" style="text;html=1;align=center;verticalAlign=middle;resizable=0;points=[];autosize=1;strokeColor=none;fillColor=none;" vertex="1" parent="1wutTRb1-3ki2wQ0vtYq-3">
          <mxGeometry x="-80" y="50" width="60" height="20" as="geometry" />
        </mxCell>
        <mxCell id="1wutTRb1-3ki2wQ0vtYq-15" value="$$r_1L&amp;lt;t$$" style="text;html=1;align=center;verticalAlign=middle;resizable=0;points=[];autosize=1;strokeColor=none;fillColor=none;rotation=335;" vertex="1" parent="1wutTRb1-3ki2wQ0vtYq-3">
          <mxGeometry x="-86" y="94" width="80" height="20" as="geometry" />
        </mxCell>
        <mxCell id="1wutTRb1-3ki2wQ0vtYq-16" value="$$\text{NACK}$$" style="text;html=1;align=center;verticalAlign=middle;resizable=0;points=[];autosize=1;strokeColor=none;fillColor=none;rotation=336;" vertex="1" parent="1wutTRb1-3ki2wQ0vtYq-3">
          <mxGeometry x="-93" y="112" width="110" height="20" as="geometry" />
        </mxCell>
        <mxCell id="1wutTRb1-3ki2wQ0vtYq-18" value="$$r_2$$" style="text;html=1;align=center;verticalAlign=middle;resizable=0;points=[];autosize=1;strokeColor=none;fillColor=none;" vertex="1" parent="1wutTRb1-3ki2wQ0vtYq-3">
          <mxGeometry x="-80" y="140" width="60" height="20" as="geometry" />
        </mxCell>
        <mxCell id="1wutTRb1-3ki2wQ0vtYq-19" value="$$\text{NACK}$$" style="text;html=1;align=center;verticalAlign=middle;resizable=0;points=[];autosize=1;strokeColor=none;fillColor=none;rotation=336;" vertex="1" parent="1wutTRb1-3ki2wQ0vtYq-3">
          <mxGeometry x="-93.5" y="201.95" width="110" height="20" as="geometry" />
        </mxCell>
        <mxCell id="1wutTRb1-3ki2wQ0vtYq-21" value="$$r_1L+r_2L&amp;lt;t$$" style="text;html=1;align=center;verticalAlign=middle;resizable=0;points=[];autosize=1;strokeColor=none;fillColor=none;rotation=-25;" vertex="1" parent="1wutTRb1-3ki2wQ0vtYq-3">
          <mxGeometry x="-105.5" y="184.95" width="110" height="20" as="geometry" />
        </mxCell>
        <mxCell id="1wutTRb1-3ki2wQ0vtYq-23" value="$$r_3$$" style="text;html=1;align=center;verticalAlign=middle;resizable=0;points=[];autosize=1;strokeColor=none;fillColor=none;" vertex="1" parent="1wutTRb1-3ki2wQ0vtYq-3">
          <mxGeometry x="-80" y="230" width="60" height="20" as="geometry" />
        </mxCell>
        <mxCell id="1wutTRb1-3ki2wQ0vtYq-25" style="edgeStyle=none;rounded=0;orthogonalLoop=1;jettySize=auto;html=1;" edge="1" parent="1wutTRb1-3ki2wQ0vtYq-3">
          <mxGeometry relative="1" as="geometry">
            <mxPoint x="-145" y="70" as="sourcePoint" />
            <mxPoint x="49.5" y="70" as="targetPoint" />
            <Array as="points">
              <mxPoint x="-70" y="70" />
            </Array>
          </mxGeometry>
        </mxCell>
        <mxCell id="1wutTRb1-3ki2wQ0vtYq-28" style="edgeStyle=none;rounded=0;orthogonalLoop=1;jettySize=auto;html=1;" edge="1" parent="1wutTRb1-3ki2wQ0vtYq-3">
          <mxGeometry relative="1" as="geometry">
            <mxPoint x="-145" y="160" as="sourcePoint" />
            <mxPoint x="49.5" y="160" as="targetPoint" />
            <Array as="points">
              <mxPoint x="-70" y="160" />
            </Array>
          </mxGeometry>
        </mxCell>
        <mxCell id="1wutTRb1-3ki2wQ0vtYq-29" style="rounded=0;orthogonalLoop=1;jettySize=auto;html=1;exitX=0.1;exitY=0.205;exitDx=0;exitDy=0;exitPerimeter=0;entryX=1;entryY=0.619;entryDx=0;entryDy=0;entryPerimeter=0;" edge="1" parent="1wutTRb1-3ki2wQ0vtYq-3">
          <mxGeometry relative="1" as="geometry">
            <mxPoint x="45" y="163.05999999999995" as="sourcePoint" />
            <mxPoint x="-146" y="250" as="targetPoint" />
          </mxGeometry>
        </mxCell>
        <mxCell id="1wutTRb1-3ki2wQ0vtYq-30" style="edgeStyle=none;rounded=0;orthogonalLoop=1;jettySize=auto;html=1;" edge="1" parent="1wutTRb1-3ki2wQ0vtYq-3">
          <mxGeometry relative="1" as="geometry">
            <mxPoint x="-144.5" y="250" as="sourcePoint" />
            <mxPoint x="50" y="250" as="targetPoint" />
            <Array as="points">
              <mxPoint x="-69.5" y="250" />
            </Array>
          </mxGeometry>
        </mxCell>
        <mxCell id="1wutTRb1-3ki2wQ0vtYq-32" value="$$r_1L+r_2L+r_3L&amp;lt;t$$" style="text;html=1;align=center;verticalAlign=middle;resizable=0;points=[];autosize=1;strokeColor=none;fillColor=none;rotation=336;" vertex="1" parent="1wutTRb1-3ki2wQ0vtYq-3">
          <mxGeometry x="-134.5" y="279" width="140" height="20" as="geometry" />
        </mxCell>
        <mxCell id="1wutTRb1-3ki2wQ0vtYq-33" value="$$\text{ACK}$$" style="text;html=1;align=center;verticalAlign=middle;resizable=0;points=[];autosize=1;strokeColor=none;fillColor=none;rotation=336;" vertex="1" parent="1wutTRb1-3ki2wQ0vtYq-3">
          <mxGeometry x="-88" y="290" width="100" height="20" as="geometry" />
        </mxCell>
        <mxCell id="1wutTRb1-3ki2wQ0vtYq-5" value="$$\text{Transmitter}$$" style="shape=umlLifeline;perimeter=lifelinePerimeter;whiteSpace=wrap;html=1;container=1;collapsible=0;recursiveResize=0;outlineConnect=0;" vertex="1" parent="1">
          <mxGeometry x="40" y="80" width="100" height="360" as="geometry" />
        </mxCell>
        <mxCell id="1wutTRb1-3ki2wQ0vtYq-6" value="" style="html=1;points=[];perimeter=orthogonalPerimeter;" vertex="1" parent="1wutTRb1-3ki2wQ0vtYq-5">
          <mxGeometry x="45" y="60" width="10" height="290" as="geometry" />
        </mxCell>
        <mxCell id="1wutTRb1-3ki2wQ0vtYq-12" value="$$L$$" style="shape=dimension;direction=west;whiteSpace=wrap;html=1;align=center;points=[];verticalAlign=top;spacingTop=-8;labelBackgroundColor=#ffffff" vertex="1" parent="1">
          <mxGeometry x="90" y="40" width="200" height="40" as="geometry" />
        </mxCell>
      </root>
    </mxGraphModel>
  </diagram>
</mxfile>
